<svg width="101" height="97" viewBox="0 0 101 97" fill="none" xmlns="http://www.w3.org/2000/svg">
<rect x="3" y="3" width="95" height="90.374" rx="24" fill="#F6F1E6" stroke="#EBDAA0" stroke-width="6"/>
<rect x="3" y="3" width="95" height="90.374" rx="24" fill="#F6F1E6" stroke="#EBDAA0" stroke-width="6"/>
<path d="M16.1909 24.4515C16.1909 21.8517 17.2237 19.3583 19.062 17.52C20.9004 15.6816 23.3937 14.6489 25.9935 14.6489H75.0066C77.6064 14.6489 80.0998 15.6816 81.9381 17.52C83.7765 19.3583 84.8092 21.8517 84.8092 24.4515V73.4646C84.8092 76.0644 83.7765 78.5577 81.9381 80.3961C80.0998 82.2344 77.6064 83.2672 75.0066 83.2672H25.9935C23.3937 83.2672 20.9004 82.2344 19.062 80.3961C17.2237 78.5577 16.1909 76.0644 16.1909 73.4646V24.4515ZM25.9935 19.5502C24.6936 19.5502 23.447 20.0666 22.5278 20.9857C21.6086 21.9049 21.0922 23.1516 21.0922 24.4515V73.4646C21.0922 74.7645 21.6086 76.0111 22.5278 76.9303C23.447 77.8495 24.6936 78.3659 25.9935 78.3659H75.0066C76.3065 78.3659 77.5532 77.8495 78.4724 76.9303C79.3915 76.0111 79.9079 74.7645 79.9079 73.4646V24.4515C79.9079 23.1516 79.3915 21.9049 78.4724 20.9857C77.5532 20.0666 76.3065 19.5502 75.0066 19.5502H25.9935ZM50.5001 29.3528C51.15 29.3528 51.7734 29.611 52.233 30.0706C52.6925 30.5302 52.9507 31.1535 52.9507 31.8034V46.5074H67.6547C68.3046 46.5074 68.928 46.7656 69.3875 47.2252C69.8471 47.6847 70.1053 48.3081 70.1053 48.958C70.1053 49.608 69.8471 50.2313 69.3875 50.6909C68.928 51.1505 68.3046 51.4087 67.6547 51.4087H52.9507V66.1126C52.9507 66.7626 52.6925 67.3859 52.233 67.8455C51.7734 68.3051 51.15 68.5633 50.5001 68.5633C49.8501 68.5633 49.2268 68.3051 48.7672 67.8455C48.3076 67.3859 48.0494 66.7626 48.0494 66.1126V51.4087H33.3455C32.6955 51.4087 32.0722 51.1505 31.6126 50.6909C31.153 50.2313 30.8948 49.608 30.8948 48.958C30.8948 48.3081 31.153 47.6847 31.6126 47.2252C32.0722 46.7656 32.6955 46.5074 33.3455 46.5074H48.0494V31.8034C48.0494 31.1535 48.3076 30.5302 48.7672 30.0706C49.2268 29.611 49.8501 29.3528 50.5001 29.3528Z" fill="#1C1414"/>
</svg>
