<svg xmlns="http://www.w3.org/2000/svg" viewBox="0 0 300 400"><defs><style>.cls-1{fill:#925c9a;}</style></defs><g id="Слой_2" data-name="Слой 2"><g id="Слой_1-2" data-name="Слой 1"><path class="cls-1" d="M150,162.5A12.5,12.5,0,0,1,162.5,175v37.5H200a12.5,12.5,0,0,1,0,25H162.5V275a12.5,12.5,0,0,1-25,0V237.5H100a12.5,12.5,0,0,1,0-25h37.5V175A12.5,12.5,0,0,1,150,162.5Z"/><path class="cls-1" d="M300,112.5V350a50,50,0,0,1-50,50H50A50,50,0,0,1,0,350V50A50,50,0,0,1,50,0H187.5Zm-75,0A37.5,37.5,0,0,1,187.5,75V25H50A25,25,0,0,0,25,50V350a25,25,0,0,0,25,25H250a25,25,0,0,0,25-25V112.5Z"/></g></g></svg>