<svg width="760" height="765" viewBox="0 0 760 765" fill="none" xmlns="http://www.w3.org/2000/svg">
<g filter="url(#filter0_d_58_14)">
<g filter="url(#filter1_i_58_14)">
<rect width="760" height="762" rx="29" fill="#FBF8F2"/>
</g>
<g filter="url(#filter2_i_58_14)">
<path d="M245.143 157.857C245.143 153.386 243.367 149.099 240.206 145.937C237.044 142.776 232.757 141 228.286 141C205.932 141 184.493 149.88 168.687 165.687C152.88 181.493 144 202.932 144 225.286C144 229.757 145.776 234.044 148.937 237.206C152.099 240.367 156.386 242.143 160.857 242.143C165.328 242.143 169.616 240.367 172.777 237.206C175.938 234.044 177.714 229.757 177.714 225.286C177.714 211.873 183.042 199.01 192.526 189.526C202.01 180.042 214.873 174.714 228.286 174.714C232.757 174.714 237.044 172.938 240.206 169.777C243.367 166.616 245.143 162.328 245.143 157.857ZM599.143 242.143C603.614 242.143 607.901 240.367 611.063 237.206C614.224 234.044 616 229.757 616 225.286C616 202.932 607.12 181.493 591.313 165.687C575.507 149.88 554.068 141 531.714 141C527.244 141 522.956 142.776 519.794 145.937C516.633 149.099 514.857 153.386 514.857 157.857C514.857 162.328 516.633 166.616 519.794 169.777C522.956 172.938 527.244 174.714 531.714 174.714C545.127 174.714 557.99 180.042 567.474 189.526C576.958 199.01 582.286 211.873 582.286 225.286C582.286 229.757 584.062 234.044 587.223 237.206C590.384 240.367 594.672 242.143 599.143 242.143ZM531.714 613C527.244 613 522.956 611.224 519.794 608.063C516.633 604.901 514.857 600.614 514.857 596.143C514.857 591.672 516.633 587.384 519.794 584.223C522.956 581.062 527.244 579.286 531.714 579.286C545.127 579.286 557.99 573.958 567.474 564.474C576.958 554.99 582.286 542.127 582.286 528.714C582.286 524.244 584.062 519.956 587.223 516.794C590.384 513.633 594.672 511.857 599.143 511.857C603.614 511.857 607.901 513.633 611.063 516.794C614.224 519.956 616 524.244 616 528.714C616 551.068 607.12 572.507 591.313 588.313C575.507 604.12 554.068 613 531.714 613V613ZM160.857 511.857C156.386 511.857 152.099 513.633 148.937 516.794C145.776 519.956 144 524.244 144 528.714C144 551.068 152.88 572.507 168.687 588.313C184.493 604.12 205.932 613 228.286 613C232.757 613 237.044 611.224 240.206 608.063C243.367 604.901 245.143 600.614 245.143 596.143C245.143 591.672 243.367 587.384 240.206 584.223C237.044 581.062 232.757 579.286 228.286 579.286C214.873 579.286 202.01 573.958 192.526 564.474C183.042 554.99 177.714 542.127 177.714 528.714C177.714 524.244 175.938 519.956 172.777 516.794C169.616 513.633 165.328 511.857 160.857 511.857ZM144 343.286C144 338.815 145.776 334.527 148.937 331.366C152.099 328.205 156.386 326.429 160.857 326.429C165.328 326.429 169.616 328.205 172.777 331.366C175.938 334.527 177.714 338.815 177.714 343.286V410.714C177.714 415.185 175.938 419.473 172.777 422.634C169.616 425.795 165.328 427.571 160.857 427.571C156.386 427.571 152.099 425.795 148.937 422.634C145.776 419.473 144 415.185 144 410.714V343.286ZM599.143 326.429C594.672 326.429 590.384 328.205 587.223 331.366C584.062 334.527 582.286 338.815 582.286 343.286V410.714C582.286 415.185 584.062 419.473 587.223 422.634C590.384 425.795 594.672 427.571 599.143 427.571C603.614 427.571 607.901 425.795 611.063 422.634C614.224 419.473 616 415.185 616 410.714V343.286C616 338.815 614.224 334.527 611.063 331.366C607.901 328.205 603.614 326.429 599.143 326.429ZM329.429 157.857C329.429 153.386 331.205 149.099 334.366 145.937C337.527 142.776 341.815 141 346.286 141H413.714C418.185 141 422.473 142.776 425.634 145.937C428.795 149.099 430.571 153.386 430.571 157.857C430.571 162.328 428.795 166.616 425.634 169.777C422.473 172.938 418.185 174.714 413.714 174.714H346.286C341.815 174.714 337.527 172.938 334.366 169.777C331.205 166.616 329.429 162.328 329.429 157.857ZM346.286 579.286C341.815 579.286 337.527 581.062 334.366 584.223C331.205 587.384 329.429 591.672 329.429 596.143C329.429 600.614 331.205 604.901 334.366 608.063C337.527 611.224 341.815 613 346.286 613H413.714C418.185 613 422.473 611.224 425.634 608.063C428.795 604.901 430.571 600.614 430.571 596.143C430.571 591.672 428.795 587.384 425.634 584.223C422.473 581.062 418.185 579.286 413.714 579.286H346.286Z" fill="black"/>
</g>
<g filter="url(#filter3_i_58_14)">
<path d="M402.196 239H311.333C302.228 239 293.495 242.608 287.056 249.032C280.617 255.455 277 264.166 277 273.25V478.75C277 487.834 280.617 496.545 287.056 502.968C293.495 509.392 302.228 513 311.333 513H448.667C457.772 513 466.505 509.392 472.944 502.968C479.383 496.545 483 487.834 483 478.75V319.607C482.999 315.066 481.19 310.711 477.97 307.5L414.333 244.018C411.115 240.806 406.749 239.001 402.196 239V239ZM405.75 298.938V264.688L457.25 316.062H422.917C418.364 316.062 413.997 314.258 410.778 311.047C407.559 307.835 405.75 303.479 405.75 298.938ZM343.675 353.395L380 396.875L416.325 353.378C417.784 351.634 419.878 350.539 422.146 350.336C424.414 350.132 426.67 350.835 428.419 352.29C430.167 353.746 431.264 355.835 431.468 358.098C431.673 360.36 430.968 362.611 429.509 364.355L391.175 410.25L429.509 456.145C430.901 457.896 431.553 460.121 431.323 462.345C431.093 464.568 430.001 466.614 428.28 468.045C426.558 469.476 424.344 470.179 422.11 470.003C419.876 469.828 417.8 468.787 416.325 467.105L380 423.625L343.675 467.122C342.216 468.866 340.122 469.961 337.854 470.164C335.586 470.368 333.33 469.665 331.581 468.21C329.833 466.754 328.736 464.665 328.532 462.403C328.327 460.14 329.032 457.889 330.491 456.145L368.824 410.25L330.491 364.355C329.738 363.496 329.164 362.495 328.804 361.411C328.444 360.327 328.305 359.183 328.395 358.044C328.485 356.906 328.802 355.797 329.328 354.783C329.853 353.769 330.577 352.87 331.457 352.139C332.336 351.408 333.353 350.86 334.447 350.527C335.542 350.194 336.693 350.083 337.831 350.2C338.97 350.317 340.073 350.66 341.077 351.208C342.08 351.757 342.964 352.501 343.675 353.395V353.395Z" fill="black"/>
</g>
<g filter="url(#filter4_i_58_14)">
<path d="M196.12 685.44V710.8H199.76V721.52H196.32V714H176.68V721.52H173.24V710.8H175.44C176.4 709.147 177.307 707.293 178.16 705.24C179.04 703.187 179.813 701.04 180.48 698.8C181.147 696.533 181.693 694.267 182.12 692C182.547 689.733 182.813 687.547 182.92 685.44H196.12ZM186.08 688.68C185.973 690.227 185.707 691.973 185.28 693.92C184.88 695.867 184.36 697.867 183.72 699.92C183.107 701.947 182.413 703.907 181.64 705.8C180.893 707.693 180.093 709.36 179.24 710.8H192.56V688.68H186.08ZM222.696 703.24C222.696 705.027 222.456 706.613 221.976 708C221.523 709.36 220.856 710.52 219.976 711.48C219.123 712.44 218.07 713.173 216.816 713.68C215.59 714.16 214.216 714.4 212.696 714.4C211.283 714.4 209.976 714.16 208.776 713.68C207.576 713.173 206.536 712.44 205.656 711.48C204.776 710.52 204.083 709.36 203.576 708C203.096 706.613 202.856 705.027 202.856 703.24C202.856 700.867 203.256 698.867 204.056 697.24C204.856 695.587 206.003 694.333 207.496 693.48C208.99 692.6 210.763 692.16 212.816 692.16C214.763 692.16 216.47 692.6 217.936 693.48C219.43 694.333 220.59 695.587 221.416 697.24C222.27 698.867 222.696 700.867 222.696 703.24ZM206.496 703.24C206.496 704.92 206.71 706.387 207.136 707.64C207.59 708.867 208.283 709.813 209.216 710.48C210.15 711.147 211.336 711.48 212.776 711.48C214.216 711.48 215.403 711.147 216.336 710.48C217.27 709.813 217.95 708.867 218.376 707.64C218.83 706.387 219.056 704.92 219.056 703.24C219.056 701.533 218.83 700.08 218.376 698.88C217.923 697.68 217.23 696.76 216.296 696.12C215.39 695.453 214.203 695.12 212.736 695.12C210.55 695.12 208.963 695.84 207.976 697.28C206.99 698.72 206.496 700.707 206.496 703.24ZM227.155 701.12C227.155 698 227.462 695.347 228.075 693.16C228.715 690.947 229.688 689.187 230.995 687.88C232.328 686.547 234.035 685.653 236.115 685.2C237.848 684.827 239.542 684.493 241.195 684.2C242.848 683.907 244.395 683.64 245.835 683.4L246.435 686.48C245.742 686.587 244.968 686.72 244.115 686.88C243.262 687.013 242.395 687.16 241.515 687.32C240.635 687.453 239.782 687.6 238.955 687.76C238.155 687.893 237.448 688.027 236.835 688.16C235.955 688.347 235.168 688.667 234.475 689.12C233.782 689.547 233.182 690.133 232.675 690.88C232.195 691.627 231.808 692.547 231.515 693.64C231.222 694.733 231.048 696.027 230.995 697.52H231.235C231.608 697.013 232.115 696.493 232.755 695.96C233.422 695.427 234.208 694.973 235.115 694.6C236.048 694.227 237.102 694.04 238.275 694.04C240.142 694.04 241.688 694.453 242.915 695.28C244.168 696.08 245.102 697.2 245.715 698.64C246.355 700.08 246.675 701.76 246.675 703.68C246.675 706.053 246.262 708.04 245.435 709.64C244.608 711.24 243.462 712.44 241.995 713.24C240.528 714.013 238.822 714.4 236.875 714.4C235.408 714.4 234.075 714.12 232.875 713.56C231.675 712.973 230.648 712.12 229.795 711C228.942 709.88 228.288 708.493 227.835 706.84C227.382 705.187 227.155 703.28 227.155 701.12ZM237.155 711.48C238.328 711.48 239.342 711.24 240.195 710.76C241.075 710.28 241.755 709.493 242.235 708.4C242.715 707.307 242.955 705.853 242.955 704.04C242.955 701.853 242.542 700.133 241.715 698.88C240.915 697.6 239.582 696.96 237.715 696.96C236.542 696.96 235.475 697.227 234.515 697.76C233.555 698.267 232.755 698.853 232.115 699.52C231.475 700.187 231.022 700.747 230.755 701.2C230.755 702.507 230.848 703.773 231.035 705C231.222 706.227 231.542 707.333 231.995 708.32C232.475 709.28 233.128 710.053 233.955 710.64C234.808 711.2 235.875 711.48 237.155 711.48ZM260.34 692.2C262.954 692.2 264.887 692.773 266.14 693.92C267.394 695.067 268.02 696.893 268.02 699.4V714H265.46L264.78 710.96H264.62C264.007 711.733 263.367 712.387 262.7 712.92C262.06 713.427 261.314 713.8 260.46 714.04C259.634 714.28 258.62 714.4 257.42 714.4C256.14 714.4 254.98 714.173 253.94 713.72C252.927 713.267 252.127 712.573 251.54 711.64C250.954 710.68 250.66 709.48 250.66 708.04C250.66 705.907 251.5 704.267 253.18 703.12C254.86 701.947 257.447 701.307 260.94 701.2L264.58 701.08V699.8C264.58 698.013 264.194 696.773 263.42 696.08C262.647 695.387 261.554 695.04 260.14 695.04C259.02 695.04 257.954 695.213 256.94 695.56C255.927 695.88 254.98 696.253 254.1 696.68L253.02 694.04C253.954 693.533 255.06 693.107 256.34 692.76C257.62 692.387 258.954 692.2 260.34 692.2ZM261.38 703.64C258.714 703.747 256.86 704.173 255.82 704.92C254.807 705.667 254.3 706.72 254.3 708.08C254.3 709.28 254.66 710.16 255.38 710.72C256.127 711.28 257.074 711.56 258.22 711.56C260.034 711.56 261.54 711.067 262.74 710.08C263.94 709.067 264.54 707.52 264.54 705.44V703.52L261.38 703.64ZM291.882 697.96C291.882 699.293 291.482 700.333 290.682 701.08C289.882 701.827 288.856 702.333 287.602 702.6V702.76C288.936 702.947 290.096 703.427 291.082 704.2C292.069 704.947 292.562 706.12 292.562 707.72C292.562 708.627 292.389 709.467 292.042 710.24C291.722 711.013 291.216 711.68 290.522 712.24C289.829 712.8 288.936 713.24 287.842 713.56C286.749 713.853 285.429 714 283.882 714H274.642V692.56H283.842C285.362 692.56 286.722 692.733 287.922 693.08C289.149 693.4 290.109 693.96 290.802 694.76C291.522 695.533 291.882 696.6 291.882 697.96ZM288.922 707.72C288.922 706.493 288.456 705.613 287.522 705.08C286.589 704.547 285.216 704.28 283.402 704.28H278.162V711.16H283.482C285.242 711.16 286.589 710.907 287.522 710.4C288.456 709.867 288.922 708.973 288.922 707.72ZM288.322 698.4C288.322 697.387 287.949 696.653 287.202 696.2C286.482 695.72 285.296 695.48 283.642 695.48H278.162V701.36H283.002C284.736 701.36 286.056 701.12 286.962 700.64C287.869 700.16 288.322 699.413 288.322 698.4ZM301.009 705.64C301.009 705.88 300.996 706.227 300.969 706.68C300.969 707.107 300.956 707.573 300.929 708.08C300.902 708.56 300.876 709.027 300.849 709.48C300.822 709.907 300.796 710.253 300.769 710.52L312.249 692.56H316.569V714H313.289V701.36C313.289 700.933 313.289 700.373 313.289 699.68C313.316 698.987 313.342 698.307 313.369 697.64C313.396 696.947 313.422 696.427 313.449 696.08L302.049 714H297.689V692.56H301.009V705.64ZM338.192 695.52H331.192V714H327.712V695.52H320.792V692.56H338.192V695.52ZM352.296 701.36C354.162 701.36 355.709 701.587 356.936 702.04C358.162 702.493 359.082 703.173 359.696 704.08C360.336 704.96 360.656 706.08 360.656 707.44C360.656 708.773 360.349 709.933 359.736 710.92C359.149 711.907 358.229 712.667 356.976 713.2C355.722 713.733 354.109 714 352.136 714H342.416V692.56H345.936V701.36H352.296ZM357.136 707.64C357.136 706.333 356.669 705.453 355.736 705C354.829 704.52 353.549 704.28 351.896 704.28H345.936V711.16H351.976C353.469 711.16 354.696 710.893 355.656 710.36C356.642 709.827 357.136 708.92 357.136 707.64ZM378.973 709.08V689.92C378.973 688.133 379.413 686.827 380.293 686C381.173 685.147 382.307 684.72 383.693 684.72C383.747 684.72 383.8 684.72 383.853 684.72C383.907 684.72 383.96 684.72 384.013 684.72L396.653 685.36V687.68H384.013C383.373 687.68 382.88 687.813 382.533 688.08C382.213 688.32 382.027 688.573 381.973 688.84C381.947 689.08 381.933 689.44 381.933 689.92V697.92L395.053 698.32V700.68L381.933 701.08V709.08C381.933 709.56 382 709.96 382.133 710.28C382.267 710.573 382.467 710.787 382.733 710.92C383 711.027 383.227 711.093 383.413 711.12C383.627 711.147 383.92 711.16 384.293 711.16C384.293 711.16 384.307 711.16 384.333 711.16C384.36 711.16 384.387 711.16 384.413 711.16H396.653V713.44L384.413 714.12C384.307 714.12 384.2 714.12 384.093 714.12C383.987 714.147 383.88 714.16 383.773 714.16C383.107 714.16 382.507 714.093 381.973 713.96C381.44 713.8 380.933 713.547 380.453 713.2C380 712.827 379.64 712.293 379.373 711.6C379.107 710.907 378.973 710.067 378.973 709.08ZM399.429 714L407.109 703.36L399.429 692.76H403.109L408.869 700.92L414.789 692.76H418.469L410.709 703.48L418.149 714H414.789L408.949 705.92L403.109 714H399.429ZM421.445 703.36C421.445 701.12 421.605 699.267 421.925 697.8C422.272 696.307 422.779 695.2 423.445 694.48C424.112 693.733 424.832 693.227 425.605 692.96C426.379 692.693 427.325 692.56 428.445 692.56C430.792 692.56 433.832 692.907 437.565 693.6V695.76C433.859 695.6 430.819 695.52 428.445 695.52C427.725 695.52 427.165 695.587 426.765 695.72C426.365 695.853 425.952 696.173 425.525 696.68C425.125 697.16 424.832 697.96 424.645 699.08C424.485 700.2 424.405 701.68 424.405 703.52C424.405 706.507 424.699 708.547 425.285 709.64C425.899 710.707 426.952 711.24 428.445 711.24C429.539 711.24 430.859 711.213 432.405 711.16C433.979 711.08 435.285 711 436.325 710.92L437.845 710.8V713.04C435.285 713.76 432.152 714.147 428.445 714.2C427.352 714.2 426.419 714.067 425.645 713.8C424.899 713.533 424.179 713.04 423.485 712.32C422.819 711.573 422.312 710.453 421.965 708.96C421.619 707.467 421.445 705.6 421.445 703.36ZM441.445 703.28C441.445 700.933 441.605 699.053 441.925 697.64C442.245 696.2 442.819 695.12 443.645 694.4C444.499 693.653 445.432 693.173 446.445 692.96C447.485 692.72 448.912 692.6 450.725 692.6C452.192 692.6 453.339 692.667 454.165 692.8C454.992 692.933 455.805 693.24 456.605 693.72C457.405 694.2 457.979 694.96 458.325 696C458.672 697.04 458.845 698.413 458.845 700.12C458.845 703.373 457.019 705 453.365 705H444.405C444.405 707.48 444.685 709.147 445.245 710C445.805 710.827 446.872 711.24 448.445 711.24C448.632 711.24 448.912 711.24 449.285 711.24C449.659 711.24 449.939 711.24 450.125 711.24C453.859 711.24 456.632 711.107 458.445 710.84V713.08C455.805 713.827 452.472 714.2 448.445 714.2C445.752 714.2 443.912 713.427 442.925 711.88C441.939 710.333 441.445 707.467 441.445 703.28ZM444.405 702.08H453.365C455.045 702.08 455.885 701.427 455.885 700.12C455.885 698.067 455.579 696.8 454.965 696.32C454.379 695.813 452.979 695.56 450.765 695.56C449.832 695.56 449.139 695.573 448.685 695.6C448.259 695.627 447.739 695.707 447.125 695.84C446.539 695.947 446.112 696.133 445.845 696.4C445.605 696.667 445.339 697.04 445.045 697.52C444.779 698 444.605 698.613 444.525 699.36C444.445 700.107 444.405 701.013 444.405 702.08ZM462.861 706.44V682.68H465.821V706.44C465.821 708.067 466.008 709.2 466.381 709.84C466.754 710.453 467.328 710.853 468.101 711.04C470.288 711.6 471.474 711.88 471.661 711.88V714H468.141C464.621 714 462.861 711.48 462.861 706.44ZM501.661 692.24C503.794 692.427 505.648 692.987 507.221 693.92C508.821 694.853 510.061 696.107 510.941 697.68C511.821 699.253 512.261 701.12 512.261 703.28C512.261 705.44 511.834 707.32 510.981 708.92C510.128 710.493 508.914 711.747 507.341 712.68C505.768 713.587 503.874 714.133 501.661 714.32V723.6H498.221V714.32C496.114 714.133 494.261 713.587 492.661 712.68C491.061 711.747 489.821 710.493 488.941 708.92C488.061 707.32 487.621 705.44 487.621 703.28C487.621 701.093 488.048 699.213 488.901 697.64C489.754 696.04 490.981 694.787 492.581 693.88C494.181 692.947 496.101 692.4 498.341 692.24V683.6H501.661V692.24ZM498.341 695.16C496.714 695.32 495.381 695.733 494.341 696.4C493.301 697.067 492.528 697.973 492.021 699.12C491.541 700.267 491.301 701.653 491.301 703.28C491.301 704.88 491.541 706.267 492.021 707.44C492.528 708.587 493.301 709.507 494.341 710.2C495.381 710.867 496.714 711.28 498.341 711.44V695.16ZM501.661 711.44C503.261 711.253 504.568 710.827 505.581 710.16C506.621 709.493 507.381 708.587 507.861 707.44C508.368 706.267 508.621 704.88 508.621 703.28C508.621 701.68 508.368 700.307 507.861 699.16C507.354 698.013 506.581 697.107 505.541 696.44C504.528 695.773 503.234 695.36 501.661 695.2V711.44ZM525.965 692.2C528.579 692.2 530.512 692.773 531.765 693.92C533.019 695.067 533.645 696.893 533.645 699.4V714H531.085L530.405 710.96H530.245C529.632 711.733 528.992 712.387 528.325 712.92C527.685 713.427 526.939 713.8 526.085 714.04C525.259 714.28 524.245 714.4 523.045 714.4C521.765 714.4 520.605 714.173 519.565 713.72C518.552 713.267 517.752 712.573 517.165 711.64C516.579 710.68 516.285 709.48 516.285 708.04C516.285 705.907 517.125 704.267 518.805 703.12C520.485 701.947 523.072 701.307 526.565 701.2L530.205 701.08V699.8C530.205 698.013 529.819 696.773 529.045 696.08C528.272 695.387 527.179 695.04 525.765 695.04C524.645 695.04 523.579 695.213 522.565 695.56C521.552 695.88 520.605 696.253 519.725 696.68L518.645 694.04C519.579 693.533 520.685 693.107 521.965 692.76C523.245 692.387 524.579 692.2 525.965 692.2ZM527.005 703.64C524.339 703.747 522.485 704.173 521.445 704.92C520.432 705.667 519.925 706.72 519.925 708.08C519.925 709.28 520.285 710.16 521.005 710.72C521.752 711.28 522.699 711.56 523.845 711.56C525.659 711.56 527.165 711.067 528.365 710.08C529.565 709.067 530.165 707.52 530.165 705.44V703.52L527.005 703.64ZM557.627 683.68C557.521 685.013 557.187 686.133 556.627 687.04C556.094 687.947 555.294 688.627 554.227 689.08C553.161 689.533 551.774 689.76 550.067 689.76C548.334 689.76 546.934 689.533 545.867 689.08C544.827 688.627 544.067 687.96 543.587 687.08C543.107 686.173 542.814 685.04 542.707 683.68H545.987C546.121 685.12 546.494 686.093 547.107 686.6C547.747 687.08 548.761 687.32 550.147 687.32C551.374 687.32 552.334 687.067 553.027 686.56C553.747 686.027 554.174 685.067 554.307 683.68H557.627ZM543.587 705.64C543.587 705.88 543.574 706.227 543.547 706.68C543.547 707.107 543.534 707.573 543.507 708.08C543.481 708.56 543.454 709.027 543.427 709.48C543.401 709.907 543.374 710.253 543.347 710.52L554.827 692.56H559.147V714H555.867V701.36C555.867 700.933 555.867 700.373 555.867 699.68C555.894 698.987 555.921 698.307 555.947 697.64C555.974 696.947 556.001 696.427 556.027 696.08L544.627 714H540.267V692.56H543.587V705.64ZM582.29 714H578.73V695.48H572.41C572.144 698.867 571.81 701.76 571.41 704.16C571.01 706.533 570.504 708.467 569.89 709.96C569.277 711.453 568.544 712.547 567.69 713.24C566.837 713.933 565.837 714.28 564.69 714.28C564.344 714.28 563.997 714.253 563.65 714.2C563.33 714.173 563.064 714.107 562.85 714V711.36C563.01 711.413 563.184 711.453 563.37 711.48C563.557 711.507 563.744 711.52 563.93 711.52C564.517 711.52 565.05 711.28 565.53 710.8C566.01 710.32 566.437 709.587 566.81 708.6C567.21 707.613 567.57 706.373 567.89 704.88C568.21 703.36 568.49 701.573 568.73 699.52C568.97 697.467 569.184 695.147 569.37 692.56H582.29V714Z" fill="black"/>
</g>
</g>
<defs>
<filter id="filter0_d_58_14" x="0" y="0" width="760" height="765" filterUnits="userSpaceOnUse" color-interpolation-filters="sRGB">
<feFlood flood-opacity="0" result="BackgroundImageFix"/>
<feColorMatrix in="SourceAlpha" type="matrix" values="0 0 0 0 0 0 0 0 0 0 0 0 0 0 0 0 0 0 127 0" result="hardAlpha"/>
<feOffset dy="3"/>
<feComposite in2="hardAlpha" operator="out"/>
<feColorMatrix type="matrix" values="0 0 0 0 0.0541667 0 0 0 0 0.0515938 0 0 0 0 0.0515938 0 0 0 0.25 0"/>
<feBlend mode="normal" in2="BackgroundImageFix" result="effect1_dropShadow_58_14"/>
<feBlend mode="normal" in="SourceGraphic" in2="effect1_dropShadow_58_14" result="shape"/>
</filter>
<filter id="filter1_i_58_14" x="0" y="0" width="760" height="766" filterUnits="userSpaceOnUse" color-interpolation-filters="sRGB">
<feFlood flood-opacity="0" result="BackgroundImageFix"/>
<feBlend mode="normal" in="SourceGraphic" in2="BackgroundImageFix" result="shape"/>
<feColorMatrix in="SourceAlpha" type="matrix" values="0 0 0 0 0 0 0 0 0 0 0 0 0 0 0 0 0 0 127 0" result="hardAlpha"/>
<feOffset dy="4"/>
<feGaussianBlur stdDeviation="2"/>
<feComposite in2="hardAlpha" operator="arithmetic" k2="-1" k3="1"/>
<feColorMatrix type="matrix" values="0 0 0 0 0 0 0 0 0 0 0 0 0 0 0 0 0 0 0.25 0"/>
<feBlend mode="normal" in2="shape" result="effect1_innerShadow_58_14"/>
</filter>
<filter id="filter2_i_58_14" x="144" y="141" width="472" height="476" filterUnits="userSpaceOnUse" color-interpolation-filters="sRGB">
<feFlood flood-opacity="0" result="BackgroundImageFix"/>
<feBlend mode="normal" in="SourceGraphic" in2="BackgroundImageFix" result="shape"/>
<feColorMatrix in="SourceAlpha" type="matrix" values="0 0 0 0 0 0 0 0 0 0 0 0 0 0 0 0 0 0 127 0" result="hardAlpha"/>
<feOffset dy="4"/>
<feGaussianBlur stdDeviation="2"/>
<feComposite in2="hardAlpha" operator="arithmetic" k2="-1" k3="1"/>
<feColorMatrix type="matrix" values="0 0 0 0 0 0 0 0 0 0 0 0 0 0 0 0 0 0 0.25 0"/>
<feBlend mode="normal" in2="shape" result="effect1_innerShadow_58_14"/>
</filter>
<filter id="filter3_i_58_14" x="277" y="239" width="206" height="278" filterUnits="userSpaceOnUse" color-interpolation-filters="sRGB">
<feFlood flood-opacity="0" result="BackgroundImageFix"/>
<feBlend mode="normal" in="SourceGraphic" in2="BackgroundImageFix" result="shape"/>
<feColorMatrix in="SourceAlpha" type="matrix" values="0 0 0 0 0 0 0 0 0 0 0 0 0 0 0 0 0 0 127 0" result="hardAlpha"/>
<feOffset dy="4"/>
<feGaussianBlur stdDeviation="2"/>
<feComposite in2="hardAlpha" operator="arithmetic" k2="-1" k3="1"/>
<feColorMatrix type="matrix" values="0 0 0 0 0 0 0 0 0 0 0 0 0 0 0 0 0 0 0.25 0"/>
<feBlend mode="normal" in2="shape" result="effect1_innerShadow_58_14"/>
</filter>
<filter id="filter4_i_58_14" x="173.24" y="682.68" width="409.05" height="44.92" filterUnits="userSpaceOnUse" color-interpolation-filters="sRGB">
<feFlood flood-opacity="0" result="BackgroundImageFix"/>
<feBlend mode="normal" in="SourceGraphic" in2="BackgroundImageFix" result="shape"/>
<feColorMatrix in="SourceAlpha" type="matrix" values="0 0 0 0 0 0 0 0 0 0 0 0 0 0 0 0 0 0 127 0" result="hardAlpha"/>
<feOffset dy="4"/>
<feGaussianBlur stdDeviation="2"/>
<feComposite in2="hardAlpha" operator="arithmetic" k2="-1" k3="1"/>
<feColorMatrix type="matrix" values="0 0 0 0 0 0 0 0 0 0 0 0 0 0 0 0 0 0 0.25 0"/>
<feBlend mode="normal" in2="shape" result="effect1_innerShadow_58_14"/>
</filter>
</defs>
</svg>
