<svg xmlns="http://www.w3.org/2000/svg" viewBox="0 0 127 346"><defs><style>.cls-1{fill:snow;fill-opacity:0.69;}</style></defs><g id="Слой_2" data-name="Слой 2"><g id="Слой_1-2" data-name="Слой 1"><path class="cls-1" d="M75.05,4.09a9.21,9.21,0,0,0-1.87-3,2.84,2.84,0,0,0-4.44,0,9.1,9.1,0,0,0-1.87,3L1.78,162.6a31.3,31.3,0,0,0,0,20.81L66.87,341.9a9,9,0,0,0,1.87,3,2.84,2.84,0,0,0,4.44,0,9.21,9.21,0,0,0,1.87-3,29.83,29.83,0,0,0,0-19.91L13.85,173,75.05,24A27,27,0,0,0,76.76,14,27,27,0,0,0,75.05,4.09Zm50.24,0a9.21,9.21,0,0,0-1.87-3,2.85,2.85,0,0,0-4.45,0,9.26,9.26,0,0,0-1.87,3L52,162.6a31.3,31.3,0,0,0,0,20.81L117.1,341.9a9.37,9.37,0,0,0,1.87,3,2.85,2.85,0,0,0,4.45,0,9.21,9.21,0,0,0,1.87-3,29.83,29.83,0,0,0,0-19.91L64.09,173l61.2-149A27.22,27.22,0,0,0,127,14,27.18,27.18,0,0,0,125.29,4.09Z"/></g></g></svg>