<svg width="129" height="346" viewBox="0 0 129 346" fill="none" xmlns="http://www.w3.org/2000/svg">
<path d="M52.7641 4.08639C53.3058 2.79039 53.9531 1.76109 54.6679 1.05925C55.3826 0.357405 56.1503 -0.00276248 56.9256 1.59533e-05C57.7009 0.00279439 58.4681 0.36846 59.1819 1.07542C59.8958 1.78239 60.5417 2.81632 61.0817 4.1162L127.189 162.605C128.35 165.388 129 169.121 129 173.007C129 176.894 128.35 180.627 127.189 183.41L61.0817 341.899C60.5409 343.197 59.8942 344.228 59.18 344.933C58.4657 345.637 57.6982 346 56.9229 346C56.1476 346 55.3802 345.637 54.6659 344.933C53.9516 344.228 53.305 343.197 52.7641 341.899C51.6514 339.237 51.0285 335.664 51.0285 331.943C51.0285 328.222 51.6514 324.649 52.7641 321.987L114.93 173.007L52.7641 23.9682C51.6552 21.3078 51.0347 17.7409 51.0347 14.0273C51.0347 10.3137 51.6552 6.7468 52.7641 4.08639ZM1.73564 4.08639C2.27734 2.79039 2.92467 1.76109 3.63942 1.05925C4.35417 0.357405 5.12185 -0.00276248 5.89715 1.59533e-05C6.67245 0.00279439 7.43965 0.36846 8.15348 1.07542C8.8673 1.78239 9.51328 2.81632 10.0533 4.1162L76.1606 162.605C77.3217 165.388 77.9715 169.121 77.9715 173.007C77.9715 176.894 77.3217 180.627 76.1606 183.41L10.0533 341.899C9.51243 343.197 8.86577 344.228 8.15149 344.933C7.4372 345.637 6.66976 346 5.89446 346C5.11916 346 4.35172 345.637 3.63743 344.933C2.92314 344.228 2.27649 343.197 1.73564 341.899C0.622933 339.237 0 335.664 0 331.943C0 328.222 0.622933 324.649 1.73564 321.987L63.9011 173.007L1.73564 23.9682C0.62675 21.3078 0.00621994 17.7409 0.00621994 14.0273C0.00621994 10.3137 0.62675 6.7468 1.73564 4.08639Z" fill="#FFFAFA" fill-opacity="0.69"/>
</svg>
