<svg xmlns="http://www.w3.org/2000/svg" viewBox="0 0 300 400"><defs><style>.cls-1{fill:#925c9a;}</style></defs><g id="Слой_2" data-name="Слой 2"><g id="Слой_2-2" data-name="Слой 2"><path class="cls-1" d="M162.5,162.5a12.5,12.5,0,0,0-25,0v94.83l-28.65-28.68a12.52,12.52,0,0,0-17.7,17.7l50,50a12.5,12.5,0,0,0,17.68,0l0,0,50-50a12.52,12.52,0,0,0-17.7-17.7L162.5,257.33Z"/><path class="cls-1" d="M300,350V112.5L187.5,0H50A50,50,0,0,0,0,50V350a50,50,0,0,0,50,50H250A50,50,0,0,0,300,350ZM187.5,75A37.5,37.5,0,0,0,225,112.5h50V350a25,25,0,0,1-25,25H50a25,25,0,0,1-25-25V50A25,25,0,0,1,50,25H187.5Z"/></g></g></svg>