<svg width="102" height="97" viewBox="0 0 102 97" fill="none" xmlns="http://www.w3.org/2000/svg">
<rect x="3" y="3" width="96" height="90.5909" rx="24" fill="#F2E9DB" stroke="#EBDAA0" stroke-width="6"/>
<path d="M36.3182 31.1299H33.4205C31.1149 31.1299 28.9038 32.0545 27.2735 33.7003C25.6432 35.3461 24.7273 37.5783 24.7273 39.9058V69.1591C24.7273 71.4866 25.6432 73.7188 27.2735 75.3646C28.9038 77.0104 31.1149 77.9351 33.4205 77.9351H62.3977C64.7033 77.9351 66.9145 77.0104 68.5448 75.3646C70.175 73.7188 71.0909 71.4866 71.0909 69.1591V39.9058C71.0909 37.5783 70.175 35.3461 68.5448 33.7003C66.9145 32.0545 64.7033 31.1299 62.3977 31.1299H59.5M36.3182 45.7565L47.9091 57.4578M47.9091 57.4578L59.5 45.7565M47.9091 57.4578V7.72726M71.0909 42.8312H73.9887C76.2942 42.8312 78.5054 43.7558 80.1357 45.4016C81.766 47.0474 82.6818 49.2796 82.6818 51.6071V80.8604C82.6818 83.1879 81.766 85.4201 80.1357 87.0659C78.5054 88.7117 76.2942 89.6364 73.9887 89.6364H45.0114C42.7058 89.6364 40.4947 88.7117 38.8644 87.0659C37.2341 85.4201 36.3182 83.1879 36.3182 80.8604V77.9351" stroke="#151010" stroke-width="6" stroke-linecap="round" stroke-linejoin="round"/>
</svg>
