<svg xmlns="http://www.w3.org/2000/svg" viewBox="0 0 400 401.05"><defs><style>.cls-1{fill:#5d226b;}.cls-2{fill:#fff;}</style></defs><g id="Слой_2" data-name="Слой 2"><g id="Слой_4" data-name="Слой 4"><rect class="cls-1" width="400" height="401.05" rx="15.26"/><path class="cls-2" d="M129,83.08a8.88,8.88,0,0,0-8.87-8.87,44.35,44.35,0,0,0-44.36,44.36,8.87,8.87,0,1,0,17.74,0A26.63,26.63,0,0,1,120.15,92,8.86,8.86,0,0,0,129,83.08Zm186.32,44.36a8.86,8.86,0,0,0,8.87-8.87,44.35,44.35,0,0,0-44.36-44.36,8.87,8.87,0,1,0,0,17.74,26.63,26.63,0,0,1,26.62,26.62,8.84,8.84,0,0,0,8.87,8.87ZM279.85,322.63a8.87,8.87,0,0,1,0-17.74,26.63,26.63,0,0,0,26.62-26.62,8.87,8.87,0,0,1,17.74,0,44.35,44.35,0,0,1-44.36,44.36ZM84.66,269.4a8.88,8.88,0,0,0-8.87,8.87,44.35,44.35,0,0,0,44.36,44.36,8.87,8.87,0,0,0,0-17.74,26.63,26.63,0,0,1-26.62-26.62,8.86,8.86,0,0,0-8.87-8.87Zm-8.87-88.72a8.87,8.87,0,1,1,17.74,0v35.49a8.87,8.87,0,0,1-17.74,0Zm239.55-8.88a8.86,8.86,0,0,0-8.87,8.88v35.49a8.87,8.87,0,0,0,17.74,0V180.68a8.88,8.88,0,0,0-8.87-8.88Zm-142-88.72a8.88,8.88,0,0,1,8.88-8.87h35.48a8.87,8.87,0,1,1,0,17.74H182.26a8.86,8.86,0,0,1-8.88-8.87Zm8.88,221.81a8.87,8.87,0,1,0,0,17.74h35.48a8.87,8.87,0,1,0,0-17.74Z"/><path class="cls-2" d="M211.68,125.79H163.86a18,18,0,0,0-18.07,18V252a18,18,0,0,0,18.07,18h72.28a18,18,0,0,0,18.07-18V168.21a9,9,0,0,0-2.65-6.37l-33.49-33.41a9,9,0,0,0-6.39-2.64Zm1.87,31.55v-18l27.11,27H222.59a9,9,0,0,1-9-9ZM180.88,186,200,208.88,219.12,186a4.52,4.52,0,1,1,6.94,5.78l-20.18,24.15,20.18,24.16a4.5,4.5,0,0,1-.65,6.26,4.56,4.56,0,0,1-3.25,1,4.48,4.48,0,0,1-3-1.53L200,223l-19.12,22.89a4.53,4.53,0,0,1-6.36.58,4.54,4.54,0,0,1-1.61-3.06,4.46,4.46,0,0,1,1-3.29l20.18-24.16-20.18-24.15a4.71,4.71,0,0,1-.89-1.55,4.66,4.66,0,0,1-.21-1.78,4.49,4.49,0,0,1,1.61-3.1,4.52,4.52,0,0,1,5.06-.49,4.48,4.48,0,0,1,1.37,1.15Z"/><path class="cls-2" d="M103.22,360.76v13.35h1.92v5.64h-1.81v-4H93v4H91.18v-5.64h1.16a25.84,25.84,0,0,0,1.43-2.93A31.52,31.52,0,0,0,95,367.79a35.77,35.77,0,0,0,.86-3.58,23.84,23.84,0,0,0,.42-3.45Zm-5.28,1.7a20.23,20.23,0,0,1-.42,2.76,31.49,31.49,0,0,1-.83,3.16,32.12,32.12,0,0,1-1.09,3.09,18.09,18.09,0,0,1-1.26,2.64h7V362.46Zm19.27,7.67a7.68,7.68,0,0,1-.38,2.5,5,5,0,0,1-1,1.83,4.41,4.41,0,0,1-1.67,1.16A5.9,5.9,0,0,1,112,376a5.56,5.56,0,0,1-2.07-.38,4.63,4.63,0,0,1-1.64-1.16,5.37,5.37,0,0,1-1.09-1.83,7.42,7.42,0,0,1-.38-2.5,7.12,7.12,0,0,1,.63-3.16,4.41,4.41,0,0,1,1.81-2,5.44,5.44,0,0,1,2.8-.7,5.16,5.16,0,0,1,2.69.7,4.51,4.51,0,0,1,1.83,2A6.71,6.71,0,0,1,117.21,370.13Zm-8.53,0a7,7,0,0,0,.34,2.31,3.09,3.09,0,0,0,1.09,1.5,3.18,3.18,0,0,0,1.88.52,3.13,3.13,0,0,0,1.87-.52,2.94,2.94,0,0,0,1.07-1.5,6.75,6.75,0,0,0,.36-2.31,6.5,6.5,0,0,0-.36-2.3,2.94,2.94,0,0,0-1.09-1.45,3.09,3.09,0,0,0-1.87-.53,2.83,2.83,0,0,0-2.51,1.14A5.48,5.48,0,0,0,108.68,370.13ZM119.56,369a15.83,15.83,0,0,1,.48-4.19,6.39,6.39,0,0,1,1.54-2.78,5.33,5.33,0,0,1,2.69-1.41c.91-.19,1.8-.37,2.67-.52l2.45-.43.31,1.63c-.36.05-.77.12-1.22.21s-.9.14-1.37.23-.91.14-1.34.23-.8.14-1.12.21a3.8,3.8,0,0,0-1.24.5,3.23,3.23,0,0,0-1,.93,5.1,5.1,0,0,0-.61,1.45,9.1,9.1,0,0,0-.27,2.05h.12a5.55,5.55,0,0,1,.8-.83,5.29,5.29,0,0,1,1.24-.71,4.44,4.44,0,0,1,1.67-.3,4.25,4.25,0,0,1,2.44.66,3.77,3.77,0,0,1,1.47,1.77,6.39,6.39,0,0,1,.51,2.65,6.81,6.81,0,0,1-.65,3.13,4.38,4.38,0,0,1-1.81,1.9,5.69,5.69,0,0,1-2.7.61,5,5,0,0,1-2.1-.44,4.5,4.5,0,0,1-1.63-1.35,6.54,6.54,0,0,1-1-2.19A11.36,11.36,0,0,1,119.56,369Zm5.26,5.45a3.13,3.13,0,0,0,1.6-.38,2.45,2.45,0,0,0,1.07-1.24,5.81,5.81,0,0,0,.38-2.29,5,5,0,0,0-.65-2.72,2.29,2.29,0,0,0-2.11-1,3.41,3.41,0,0,0-1.68.42,4.8,4.8,0,0,0-1.26.93,5,5,0,0,0-.72.88,13,13,0,0,0,.15,2,6.51,6.51,0,0,0,.5,1.75,3.33,3.33,0,0,0,1,1.22A3,3,0,0,0,124.82,374.46ZM137,364.32a4.41,4.41,0,0,1,3,.9,3.74,3.74,0,0,1,1,2.89v7.68h-1.34l-.36-1.6h-.09a6.18,6.18,0,0,1-1,1,3.27,3.27,0,0,1-1.18.59,5.61,5.61,0,0,1-1.6.19,4.53,4.53,0,0,1-1.83-.36,2.84,2.84,0,0,1-1.26-1.09,3.59,3.59,0,0,1-.46-1.9,3,3,0,0,1,1.32-2.59,7.76,7.76,0,0,1,4.09-1l1.91-.06v-.67a2.54,2.54,0,0,0-.61-2,2.45,2.45,0,0,0-1.72-.55,5.29,5.29,0,0,0-1.69.27,11.86,11.86,0,0,0-1.49.59l-.57-1.39a8.2,8.2,0,0,1,1.75-.67A7.3,7.3,0,0,1,137,364.32Zm.55,6a5.68,5.68,0,0,0-2.93.67,2,2,0,0,0-.8,1.66,1.63,1.63,0,0,0,.57,1.39,2.39,2.39,0,0,0,1.5.45,3.6,3.6,0,0,0,2.37-.78,3,3,0,0,0,.95-2.45v-1Zm16.05-3A2.13,2.13,0,0,1,153,369a3.35,3.35,0,0,1-1.62.8v.08a3.75,3.75,0,0,1,1.83.76,2.17,2.17,0,0,1,.78,1.85,3.26,3.26,0,0,1-.27,1.33,2.64,2.64,0,0,1-.8,1.05,4,4,0,0,1-1.41.7,8.38,8.38,0,0,1-2.09.23h-4.86V364.51h4.84a7.85,7.85,0,0,1,2.15.27,2.91,2.91,0,0,1,1.51.88A2.38,2.38,0,0,1,153.62,367.35Zm-1.56,5.13a1.49,1.49,0,0,0-.73-1.39,4.48,4.48,0,0,0-2.17-.42H146.4v3.62h2.8a4.51,4.51,0,0,0,2.13-.4A1.49,1.49,0,0,0,152.06,372.48Zm-.31-4.9a1.27,1.27,0,0,0-.59-1.16,3.51,3.51,0,0,0-1.87-.38H146.4v3.1H149a4.56,4.56,0,0,0,2.08-.38A1.25,1.25,0,0,0,151.75,367.58Zm6.68,3.81c0,.13,0,.31,0,.55s0,.47,0,.73,0,.5,0,.74,0,.41,0,.55l6-9.45h2.28v11.28h-1.73v-7.54c0-.36,0-.72,0-1.07s0-.64,0-.82l-6,9.43h-2.29V364.51h1.75ZM178,366.06h-3.69v9.73h-1.83v-9.73h-3.64v-1.55H178Zm7.42,3.08a7.33,7.33,0,0,1,2.44.35,2.86,2.86,0,0,1,1.45,1.08,2.9,2.9,0,0,1,.51,1.77,3.34,3.34,0,0,1-.49,1.83,2.92,2.92,0,0,1-1.45,1.2,6.59,6.59,0,0,1-2.55.42h-5.11V364.51h1.85v4.63Zm2.55,3.3a1.4,1.4,0,0,0-.74-1.39,4.43,4.43,0,0,0-2-.38h-3.14v3.62h3.18a4,4,0,0,0,1.94-.42A1.48,1.48,0,0,0,188,372.44Zm11.49.76V363.12a2.75,2.75,0,0,1,.69-2.07,2.47,2.47,0,0,1,1.79-.67h.17l6.65.34v1.22h-6.65a1.29,1.29,0,0,0-.78.21.67.67,0,0,0-.29.4,4.21,4.21,0,0,0,0,.57v4.21l6.9.21v1.24L201,369v4.21a1.67,1.67,0,0,0,.1.63.67.67,0,0,0,.32.34,1.66,1.66,0,0,0,.36.1,2.9,2.9,0,0,0,.46,0h6.5v1.2l-6.44.36h-.17a.44.44,0,0,1-.16,0,4,4,0,0,1-1-.1,2.86,2.86,0,0,1-.8-.4,2,2,0,0,1-.57-.84A3.75,3.75,0,0,1,199.46,373.2Zm10.77,2.59,4-5.6-4-5.58h1.93l3,4.3,3.12-4.3h1.94l-4.09,5.64,3.92,5.54h-1.77l-3.07-4.25-3.08,4.25Zm11.58-5.6a14,14,0,0,1,.26-2.93,3.76,3.76,0,0,1,.8-1.74,2.69,2.69,0,0,1,1.13-.8,4.68,4.68,0,0,1,1.5-.21,27.92,27.92,0,0,1,4.8.54v1.14c-2-.08-3.55-.13-4.8-.13a2.93,2.93,0,0,0-.89.11,1.62,1.62,0,0,0-.65.5,2.8,2.8,0,0,0-.46,1.27,16.23,16.23,0,0,0-.13,2.33,7.72,7.72,0,0,0,.46,3.22,1.76,1.76,0,0,0,1.67.85c.57,0,1.27,0,2.08,0l2.06-.12.8-.06v1.17a19.06,19.06,0,0,1-4.94.61,4.59,4.59,0,0,1-1.48-.21,3,3,0,0,1-1.13-.77,4.05,4.05,0,0,1-.8-1.77A12.88,12.88,0,0,1,221.81,370.19Zm10.53,0a13.84,13.84,0,0,1,.25-3,3.06,3.06,0,0,1,.91-1.71,3.23,3.23,0,0,1,1.47-.75,10.27,10.27,0,0,1,2.25-.19,12,12,0,0,1,1.81.1,3.47,3.47,0,0,1,1.29.49,2.08,2.08,0,0,1,.9,1.2,6.74,6.74,0,0,1,.28,2.16c0,1.72-1,2.57-2.89,2.57H233.9a5.21,5.21,0,0,0,.44,2.63,1.88,1.88,0,0,0,1.68.66h.89a33.2,33.2,0,0,0,4.38-.21v1.18a19.94,19.94,0,0,1-5.27.58,3.17,3.17,0,0,1-2.9-1.22C232.6,373.86,232.34,372.35,232.34,370.15Zm1.56-.63h4.71c.89,0,1.33-.35,1.33-1,0-1.08-.16-1.74-.48-2a4,4,0,0,0-2.22-.4c-.49,0-.85,0-1.09,0a5.06,5.06,0,0,0-.82.12,1.27,1.27,0,0,0-.67.3,3.78,3.78,0,0,0-.43.59,2.48,2.48,0,0,0-.27,1C233.92,368.48,233.9,369,233.9,369.52Zm9.71,2.29v-12.5h1.56v12.5a3.94,3.94,0,0,0,.29,1.79,1.41,1.41,0,0,0,.91.63c1.15.3,1.77.44,1.87.44v1.12h-1.85Q243.62,375.79,243.61,371.81ZM264,364.34a6.9,6.9,0,0,1,2.93.88,5.25,5.25,0,0,1,2,2,6,6,0,0,1,.69,2.95,6.26,6.26,0,0,1-.67,3,5.11,5.11,0,0,1-1.92,2,7.1,7.1,0,0,1-3,.87v4.88h-1.81V376a7.09,7.09,0,0,1-2.92-.87,5.15,5.15,0,0,1-2-2,6,6,0,0,1-.7-3,6.15,6.15,0,0,1,.68-3,4.9,4.9,0,0,1,1.93-2,6.94,6.94,0,0,1,3-.86v-4.55H264Zm-1.75,1.53a4.82,4.82,0,0,0-2.1.66A3.16,3.16,0,0,0,259,368a5.69,5.69,0,0,0-.38,2.19,5.83,5.83,0,0,0,.38,2.19,3.37,3.37,0,0,0,1.22,1.45,4.69,4.69,0,0,0,2.1.65Zm1.75,8.57a4.82,4.82,0,0,0,2.07-.67,3.17,3.17,0,0,0,1.2-1.43,5.63,5.63,0,0,0,.4-2.19,5.46,5.46,0,0,0-.4-2.17,3.23,3.23,0,0,0-1.23-1.43,4.55,4.55,0,0,0-2-.66Zm12.79-10.12a4.44,4.44,0,0,1,3.06.9,3.74,3.74,0,0,1,1,2.89v7.68h-1.35l-.36-1.6h-.08a6.6,6.6,0,0,1-1,1,3.36,3.36,0,0,1-1.18.59,5.7,5.7,0,0,1-1.6.19,4.46,4.46,0,0,1-1.83-.36,2.81,2.81,0,0,1-1.27-1.09,3.59,3.59,0,0,1-.46-1.9,3,3,0,0,1,1.33-2.59,7.69,7.69,0,0,1,4.08-1l1.92-.06v-.67a2.54,2.54,0,0,0-.62-2,2.45,2.45,0,0,0-1.72-.55,5.29,5.29,0,0,0-1.69.27,11.86,11.86,0,0,0-1.49.59l-.57-1.39a8.2,8.2,0,0,1,1.75-.67A7.3,7.3,0,0,1,276.82,364.32Zm.55,6a5.68,5.68,0,0,0-2.93.67,2,2,0,0,0-.8,1.66,1.63,1.63,0,0,0,.57,1.39,2.41,2.41,0,0,0,1.5.45,3.63,3.63,0,0,0,2.38-.78,3,3,0,0,0,.94-2.45v-1Zm16.12-10.51a3.93,3.93,0,0,1-.53,1.77,2.52,2.52,0,0,1-1.26,1.07,5.62,5.62,0,0,1-2.19.36,5.7,5.7,0,0,1-2.21-.36,2.35,2.35,0,0,1-1.2-1.05,4.52,4.52,0,0,1-.46-1.79h1.72a2.24,2.24,0,0,0,.59,1.54,2.71,2.71,0,0,0,1.6.38,2.59,2.59,0,0,0,1.52-.4,2,2,0,0,0,.67-1.52Zm-7.39,11.56c0,.13,0,.31,0,.55s0,.47,0,.73,0,.5-.05.74,0,.41,0,.55l6-9.45h2.28v11.28h-1.73v-7.54c0-.36,0-.72,0-1.07s0-.64,0-.82l-6,9.43h-2.3V364.51h1.75Zm20.37,4.4h-1.88V366h-3.32c-.14,1.78-.32,3.31-.53,4.57a14,14,0,0,1-.8,3.05,4.25,4.25,0,0,1-1.16,1.73,2.42,2.42,0,0,1-1.57.55,3.31,3.31,0,0,1-.55-.05,1,1,0,0,1-.42-.1V374.4a1.07,1.07,0,0,0,.27.06,1.51,1.51,0,0,0,.3,0,1.19,1.19,0,0,0,.84-.37,3.44,3.44,0,0,0,.67-1.16,12.12,12.12,0,0,0,.57-2c.17-.8.32-1.74.44-2.82s.24-2.3.34-3.66h6.8Z"/></g></g></svg>