<svg width="107" height="100" viewBox="0 0 107 100" fill="none" xmlns="http://www.w3.org/2000/svg">
<rect x="3" y="3" width="101" height="93.0963" rx="24" fill="#F6F1E6" stroke="#EBDAA0" stroke-width="6"/>
<path d="M47.7933 17.4409V80.9451L70.0582 75.0103V23.376L47.7933 17.4409ZM72.8708 21.186L72.8805 21.5102V25.6474H75.3892V21.189L72.8708 21.186ZM32.4273 21.189V37.5275H35.2496V23.6968H44.9709V21.189H32.4273ZM72.8805 28.1552V30.3844H75.3892V28.1552H72.8805ZM72.8805 32.8922V65.7725H75.3892V32.8922H72.8805ZM35.2496 41.0742V45.9886H20.1973V52.3975H35.2496V57.3118L44.3866 49.193L35.2496 41.0742ZM52.0267 45.8493C53.0658 45.8493 53.9083 47.3463 53.9083 49.193C53.9083 51.0398 53.0658 52.5368 52.0267 52.5368C50.9876 52.5368 50.1452 51.0398 50.1452 49.193C50.1452 47.3463 50.9876 45.8493 52.0267 45.8493ZM35.2496 60.8586H32.4273V75.9431H35.2496V60.8586ZM72.8805 68.2803V70.2308H75.3892V68.2803H72.8805ZM72.8805 72.7387V75.9431H75.3892V72.7387H72.8805ZM18.7861 79.1475V81.6554H44.9709V79.1475H18.7861ZM64.359 79.1475L54.9513 81.6554H89.0304V79.1475H64.359Z" fill="black"/>
</svg>
