<svg width="283" height="268" viewBox="0 0 283 268" fill="none" xmlns="http://www.w3.org/2000/svg">
<path fill-rule="evenodd" clip-rule="evenodd" d="M154.627 58.4473C205.35 58.4473 246.468 99.7414 246.468 150.681C246.468 201.62 205.35 242.915 154.627 242.915C103.905 242.915 62.7852 201.62 62.7852 150.681C62.7852 99.7414 103.905 58.4473 154.627 58.4473Z" fill="url(#paint0_radial_27_2)"/>
<path fill-rule="evenodd" clip-rule="evenodd" d="M57.2936 191.777C51.9866 179.136 49.0547 165.242 49.0547 150.66C49.0547 95.2757 91.3683 49.8235 145.299 45.1094C148.474 49.3056 151.3 53.783 153.733 58.4986C103.429 58.9498 62.7872 100.036 62.7872 150.66C62.7872 165.917 66.48 180.307 73.0161 192.98C72.7377 192.983 72.4609 192.991 72.1817 192.991C67.1119 192.991 62.1403 192.572 57.2936 191.777Z" fill="white"/>
<path fill-rule="evenodd" clip-rule="evenodd" d="M217.722 83.7897C204.678 71.3623 188.001 62.7404 169.455 59.7022C167.299 54.5664 164.749 49.6394 161.848 44.9531C183.759 46.4535 203.829 54.6752 220.041 67.5752C218.745 72.7976 217.954 78.221 217.722 83.7897Z" fill="black"/>
<path fill-rule="evenodd" clip-rule="evenodd" d="M244.568 132.533C241.923 119.217 236.421 106.936 228.73 96.3612C228.345 93.3723 228.145 90.3254 228.145 87.2309C228.145 83.2904 228.472 79.427 229.091 75.6621C247.27 93.8775 258.864 118.713 259.984 146.265C254.196 142.466 249.001 137.832 244.568 132.533Z" fill="black"/>
<path fill-rule="evenodd" clip-rule="evenodd" d="M154.572 256.623C116.716 256.623 83.5235 236.599 64.9062 206.526C67.3122 206.691 69.7379 206.782 72.1858 206.782C75.3091 206.782 78.3992 206.637 81.4537 206.37C98.2162 228.524 124.728 242.832 154.572 242.832C205.26 242.832 246.352 201.566 246.352 150.66C246.352 150.165 246.342 149.673 246.335 149.18C250.487 152.698 254.995 155.806 259.801 158.434C255.836 213.326 210.241 256.623 154.572 256.623Z" fill="black"/>
<path fill-rule="evenodd" clip-rule="evenodd" d="M136.25 23.8562C151.093 20.1993 166.894 19.3971 182.933 21.9698C243.858 31.7419 286.391 86.7048 282.063 147.371L281.954 147.43C279.64 121.622 267.365 97.7144 248.059 79.3815C232.657 57.5728 208.878 41.7554 180.511 37.205C163.728 34.5131 147.246 36.0715 132.152 41.0866C132.199 40.7777 132.239 40.4687 132.288 40.1589C133.183 34.5346 134.521 29.0929 136.25 23.8562Z" fill="white"/>
<path fill-rule="evenodd" clip-rule="evenodd" d="M108.34 267.514L108.354 267.562C81.1913 258.167 57.4277 238.876 42.8789 211.707C48.6881 212.448 54.389 213.837 59.8708 215.837C70.5868 238.118 87.7385 255.902 108.34 267.514Z" fill="white"/>
<path fill-rule="evenodd" clip-rule="evenodd" d="M54.2735 45.1379C101.136 5.90737 166.798 -7.7337 226.745 4.14723C226.333 4.44827 225.922 4.75009 225.512 5.05431C170.338 -1.44534 112.324 13.0798 69.7935 48.6844C2.98224 104.616 -2.17054 192.924 54.4823 253.856C51.1288 254.459 47.7959 255.167 44.4923 255.98C-17.9555 194.968 -14.64 102.83 54.2735 45.1379Z" fill="white"/>
<defs>
<radialGradient id="paint0_radial_27_2" cx="0" cy="0" r="1" gradientUnits="userSpaceOnUse" gradientTransform="translate(132.582 143.308) rotate(83.5365) scale(153.574 170.136)">
<stop stop-color="white" stop-opacity="0.368627"/>
<stop offset="0.180392" stop-color="#FCFCFC" stop-opacity="0.690196"/>
<stop offset="0.490196" stop-color="#A8A3A3" stop-opacity="0.929412"/>
<stop offset="0.65098" stop-color="#0E0E0E" stop-opacity="0.964706"/>
<stop offset="1"/>
</radialGradient>
</defs>
</svg>