<svg xmlns="http://www.w3.org/2000/svg" viewBox="0 0 400 400"><defs><style>.cls-1{fill:#925c9a;}</style></defs><g id="Слой_2" data-name="Слой 2"><g id="Слой_1-2" data-name="Слой 1"><path class="cls-1" d="M200,118.84A81.16,81.16,0,1,0,281.16,200,81.16,81.16,0,0,0,200,118.84ZM143.85,200A56.15,56.15,0,1,1,200,256.15,56.15,56.15,0,0,1,143.85,200Z"/><path class="cls-1" d="M244.9,33.56c-13.17-44.75-76.63-44.75-89.8,0l-2.35,8a21.83,21.83,0,0,1-27.11,14.77,22.1,22.1,0,0,1-4.27-1.77l-7.3-4c-41-22.3-85.83,22.55-63.5,63.53l4,7.3a21.84,21.84,0,0,1-13,31.38l-8,2.35c-44.75,13.17-44.75,76.63,0,89.8l8,2.35a21.83,21.83,0,0,1,14.77,27.11,22.1,22.1,0,0,1-1.77,4.27l-4,7.3c-22.3,41,22.53,85.86,63.53,63.5l7.3-4a21.84,21.84,0,0,1,31.38,13l2.35,8c13.17,44.75,76.63,44.75,89.8,0l2.35-8a21.83,21.83,0,0,1,27.11-14.77,22.1,22.1,0,0,1,4.27,1.77l7.3,4c41,22.33,85.86-22.55,63.5-63.53l-4-7.3a21.84,21.84,0,0,1,13-31.38l8-2.35c44.75-13.17,44.75-76.63,0-89.8l-8-2.35a21.83,21.83,0,0,1-14.77-27.11,22.1,22.1,0,0,1,1.77-4.27l4-7.3c22.33-41-22.55-85.83-63.53-63.5l-7.3,4a21.84,21.84,0,0,1-31.38-13Zm-65.83,7.08c6.15-20.88,35.71-20.88,41.86,0l2.35,8a46.84,46.84,0,0,0,67.33,27.87l7.27-4c19.1-10.37,40,10.5,29.6,29.63l-4,7.3a46.82,46.82,0,0,0,18.75,63.51,45.74,45.74,0,0,0,9.15,3.79l7.95,2.35c20.88,6.15,20.88,35.71,0,41.86l-8,2.35a46.84,46.84,0,0,0-27.87,67.33l4,7.27c10.37,19.1-10.5,40-29.63,29.6l-7.27-4a46.81,46.81,0,0,0-67.33,27.9l-2.35,7.95c-6.15,20.88-35.71,20.88-41.86,0l-2.35-8a46.81,46.81,0,0,0-67.3-27.87l-7.3,4c-19.1,10.37-40-10.5-29.6-29.63l4-7.27a46.85,46.85,0,0,0-27.87-67.36l-8-2.35c-20.88-6.15-20.88-35.7,0-41.85l8-2.35a46.82,46.82,0,0,0,31.64-58.17,46.17,46.17,0,0,0-3.77-9.11l-4-7.3C62.12,83,83,62.12,102.12,72.52l7.3,4a46.82,46.82,0,0,0,67.3-27.87Z"/></g></g></svg>